<svg xmlns="http://www.w3.org/2000/svg" viewBox="0 0 99.9 99.9"><defs><style>.cls-1{fill:#fff;}</style></defs><title>scwhite</title><g id="Calque_2" data-name="Calque 2"><g id="Calque_3" data-name="Calque 3"><path class="cls-1" d="M50,0a50,50,0,1,0,50,50A49.95,49.95,0,0,0,50,0ZM14.88,61.29a.31.31,0,0,1-.29.28.3.3,0,0,1-.29-.29l-.53-4,.53-4a.3.3,0,0,1,.29-.29.31.31,0,0,1,.29.29l.62,4Zm2.69,2.4a.32.32,0,0,1-.31.29.31.31,0,0,1-.3-.29l-.71-6.36.71-6.5a.31.31,0,0,1,.61,0l.8,6.5Zm2.9,1.08a.38.38,0,0,1-.36.35.37.37,0,0,1-.37-.35l-.67-7.43.67-7.71a.37.37,0,0,1,.37-.36.38.38,0,0,1,.36.36l.76,7.71ZM23.4,65a.44.44,0,0,1-.43.42.43.43,0,0,1-.42-.42l-.64-7.66.64-7.92A.43.43,0,0,1,23,49a.44.44,0,0,1,.43.42l.72,7.92Zm3,.06a.49.49,0,0,1-.49.48.48.48,0,0,1-.48-.48l-.61-7.72L25.38,50a.49.49,0,0,1,.48-.48.49.49,0,0,1,.49.47L27,57.34Zm3,0h0a.55.55,0,0,1-1.1,0l-.56-7.73.56-12a.57.57,0,0,1,.55-.54.56.56,0,0,1,.55.54l.64,12Zm3,0h0a.63.63,0,0,1-.62.6.62.62,0,0,1-.6-.6l-.53-7.68.53-14.69a.61.61,0,0,1,.6-.6.63.63,0,0,1,.62.6l.59,14.69Zm3.06-.12h0a.67.67,0,1,1-1.34,0l-.49-7.59L34,41.43a.67.67,0,1,1,1.34,0l.56,15.92Zm3,0a.74.74,0,0,1-1.47,0l-.46-7.56.46-16.45a.74.74,0,0,1,1.47,0l.51,16.45Zm3.06-.06h0a.8.8,0,0,1-.79.79.78.78,0,0,1-.79-.78l-.43-7.48.42-16a.8.8,0,0,1,1.59,0l.48,16Zm3.09,0h0a.84.84,0,0,1-.85.85.86.86,0,0,1-.86-.85l-.38-7.43.38-15.45a.86.86,0,0,1,.86-.85.84.84,0,0,1,.85.85L45,57.35ZM47.7,64l0,.73a.92.92,0,0,1-.28.64.88.88,0,0,1-.64.27.92.92,0,0,1-.7-.33.84.84,0,0,1-.21-.55s0,0,0,0l-.35-7.39.35-18.2V39a.93.93,0,0,1,.43-.76.84.84,0,0,1,.49-.15.91.91,0,0,1,.51.16.94.94,0,0,1,.41.76L48,57.35Zm3.06.63h0a1,1,0,0,1-2,0L48.6,61l-.2-3.69.4-20v-.1a1,1,0,0,1,.36-.75,1,1,0,0,1,.62-.23,1.07,1.07,0,0,1,.5.14,1,1,0,0,1,.48.84l.44,20.05Zm26.47,1H52.56a1.06,1.06,0,0,1-1-1V36.35c0-.52.18-.79.85-1.05a15.91,15.91,0,0,1,5.7-1.06A15.7,15.7,0,0,1,73.79,48.55a8.88,8.88,0,1,1,3.44,17.07Z"/></g></g></svg>